<svg width="15" height="15" viewBox="0 0 15 15" fill="none" xmlns="http://www.w3.org/2000/svg">
<path d="M6.5625 13.75V12.5M9.0625 13.75V12.5" stroke="white" stroke-width="1.5" stroke-linecap="round"/>
<path d="M6.875 12.5V12.9688H7.34375V12.5H6.875ZM8.75 12.0312C8.49113 12.0312 8.28125 12.2411 8.28125 12.5C8.28125 12.7589 8.49113 12.9688 8.75 12.9688V12.0312ZM10.9375 3.28125C10.6786 3.28125 10.4688 3.49112 10.4688 3.75C10.4688 4.00888 10.6786 4.21875 10.9375 4.21875V3.28125ZM4.375 3.28125C4.11612 3.28125 3.90625 3.49112 3.90625 3.75C3.90625 4.00888 4.11612 4.21875 4.375 4.21875V3.28125ZM5.625 12.0312C5.36612 12.0312 5.15625 12.2411 5.15625 12.5C5.15625 12.7589 5.36612 12.9688 5.625 12.9688V12.0312ZM9.375 12.9688C9.63387 12.9688 9.84375 12.7589 9.84375 12.5C9.84375 12.2411 9.63387 12.0312 9.375 12.0312V12.9688ZM6.40625 7.03125V12.5H7.34375V7.03125H6.40625ZM6.875 12.0312H2.64535V12.9688H6.875V12.0312ZM1.71875 10.8721V7.03125H0.78125V10.8721H1.71875ZM2.64535 12.0312C2.19879 12.0312 1.71875 11.5827 1.71875 10.8721H0.78125C0.78125 11.9596 1.55065 12.9688 2.64535 12.9688V12.0312ZM4.0625 4.21875C5.29173 4.21875 6.40625 5.40756 6.40625 7.03125H7.34375C7.34375 5.03057 5.93987 3.28125 4.0625 3.28125V4.21875ZM4.0625 3.28125C2.18513 3.28125 0.78125 5.03057 0.78125 7.03125H1.71875C1.71875 5.40756 2.83327 4.21875 4.0625 4.21875V3.28125ZM13.2812 7.03125V10.8908H14.2188V7.03125H13.2812ZM12.3707 12.0312H8.75V12.9688H12.3707V12.0312ZM13.2812 10.8908C13.2812 11.5911 12.8084 12.0312 12.3707 12.0312V12.9688C13.4566 12.9688 14.2188 11.968 14.2188 10.8908H13.2812ZM14.2188 7.03125C14.2188 5.03057 12.8149 3.28125 10.9375 3.28125V4.21875C12.1667 4.21875 13.2812 5.40756 13.2812 7.03125H14.2188ZM4.375 4.21875H11.25V3.28125H4.375V4.21875ZM5.625 12.9688H9.375V12.0312H5.625V12.9688Z" fill="white"/>
<path d="M3.125 10H5" stroke="white" stroke-width="1.5" stroke-linecap="round"/>
<path d="M10 6.1777V3.382M10 3.382V1.64699C10 1.4994 10.1048 1.37257 10.2496 1.34465L10.5534 1.28612C10.9211 1.21527 11.3013 1.24909 11.6507 1.38375L11.7002 1.40282C12.0466 1.53631 12.4254 1.56125 12.7864 1.47432C12.9589 1.43275 13.125 1.56355 13.125 1.74108V3.12952C13.125 3.27762 13.0235 3.40644 12.8796 3.44112L12.8379 3.45115C12.4434 3.54617 12.0294 3.51891 11.6507 3.37299C11.3013 3.23834 10.9211 3.20451 10.5534 3.27536L10 3.382Z" stroke="white" stroke-width="1.5" stroke-linecap="round"/>
</svg>
