<svg width="50" height="50" viewBox="0 0 50 50" fill="none" xmlns="http://www.w3.org/2000/svg">
<path d="M38.8242 32.646L42.4 21.9183C45.524 12.5467 47.0859 7.86088 44.6123 5.3874C42.139 2.91394 37.4532 4.47588 28.0815 7.59975L17.3537 11.1757C9.7899 13.6969 6.00801 14.9576 4.9333 16.8062C3.9109 18.5648 3.9109 20.7369 4.9333 22.4954C6.00801 24.3442 9.7899 25.6048 17.3537 28.126C18.5682 28.5308 19.1755 28.7333 19.683 29.0731C20.1749 29.4023 20.5975 29.825 20.9267 30.3169C21.2665 30.8244 21.469 31.4317 21.8738 32.646C24.3951 40.21 25.6557 43.9919 27.5044 45.0665C29.263 46.089 31.435 46.089 33.1936 45.0665C35.0423 43.9919 36.303 40.21 38.8242 32.646Z" stroke="#34AFF4" stroke-width="1.5"/>
<path d="M33.7744 18.4338C34.3879 17.827 34.3933 16.8377 33.7865 16.2241C33.1798 15.6106 32.1904 15.6051 31.5769 16.2119L33.7744 18.4338ZM22.214 29.8667L33.7744 18.4338L31.5769 16.2119L20.0166 27.6448L22.214 29.8667Z" fill="#34AFF4"/>
</svg>
