<svg width="45" height="46" viewBox="0 0 45 46" fill="none" xmlns="http://www.w3.org/2000/svg">
<path d="M26.25 7.66666C26.25 9.78375 24.5711 11.5 22.5 11.5C20.4289 11.5 18.75 9.78375 18.75 7.66666C18.75 5.54957 20.4289 3.83333 22.5 3.83333C24.5711 3.83333 26.25 5.54957 26.25 7.66666Z" stroke="#34AFF4" stroke-width="1.5"/>
<path d="M22.5 28.7494L23.721 28.0362C23.4707 27.5885 23.0046 27.3119 22.5 27.3119C21.9954 27.3119 21.5293 27.5885 21.279 28.0362L22.5 28.7494ZM10.8949 22.1576L14.9736 23.5474L15.863 20.82L11.7843 19.4302L10.8949 22.1576ZM15.594 24.8914L13.2563 31.1044L15.8813 32.1365L18.2191 25.9233L15.594 24.8914ZM33.2156 19.4302L29.1369 20.82L30.0264 23.5474L34.1051 22.1576L33.2156 19.4302ZM26.781 25.9233L29.1188 32.1365L31.7438 31.1044L29.406 24.8914L26.781 25.9233ZM20.7664 34.7482L23.721 29.4626L21.279 28.0362L18.3244 33.3218L20.7664 34.7482ZM31.8551 13.7301L28.2971 14.5095L28.8864 17.3207L32.4444 16.5413L31.8551 13.7301ZM16.7028 14.5095L13.1449 13.7301L12.5556 16.5413L16.1135 17.3207L16.7028 14.5095ZM21.279 29.4626L24.2336 34.7482L26.6756 33.3218L23.721 28.0362L21.279 29.4626ZM28.2971 14.5095C28.0974 14.5532 28.0043 14.5737 27.9122 14.5931L28.4818 17.4085C28.5859 17.3865 28.6905 17.3636 28.8864 17.3207L28.2971 14.5095ZM16.1135 17.3207C16.3095 17.3636 16.4141 17.3865 16.5182 17.4085L17.0879 14.5931C16.9958 14.5737 16.9025 14.5532 16.7028 14.5095L16.1135 17.3207ZM27.9122 14.5931C24.3418 15.348 20.6582 15.348 17.0879 14.5931L16.5182 17.4085C20.4643 18.2429 24.5357 18.2429 28.4818 17.4085L27.9122 14.5931ZM17.147 36.8952C18.6429 36.8952 20.0241 36.0759 20.7664 34.7482L18.3244 33.3218C18.0829 33.7538 17.6336 34.0202 17.147 34.0202V36.8952ZM29.1188 32.1365C29.4604 33.0445 28.8047 34.0202 27.8529 34.0202V36.8952C30.7785 36.8952 32.7939 33.8955 31.7438 31.1044L29.1188 32.1365ZM29.1369 20.82C28.7209 20.9618 28.278 21.1025 27.9184 21.3292L29.3957 23.7759C29.379 23.7862 29.3931 23.7737 29.5016 23.7318C29.6156 23.6877 29.7694 23.635 30.0264 23.5474L29.1369 20.82ZM29.406 24.8914C29.3087 24.6328 29.2508 24.4779 29.2116 24.3599C29.1743 24.2477 29.1748 24.2288 29.1774 24.2485L26.3908 24.638C26.4482 25.066 26.6235 25.5049 26.781 25.9233L29.406 24.8914ZM27.9184 21.3292C26.8138 22.0263 26.2151 23.3233 26.3908 24.638L29.1774 24.2485C29.1523 24.0607 29.2378 23.8753 29.3957 23.7759L27.9184 21.3292ZM34.2188 18.0076C34.2188 18.653 33.8147 19.2261 33.2156 19.4302L34.1051 22.1576C35.8526 21.5623 37.0313 19.8906 37.0313 18.0076H34.2188ZM13.2563 31.1044C12.2061 33.8955 14.2216 36.8952 17.147 36.8952V34.0202C16.1953 34.0202 15.5397 33.0445 15.8813 32.1365L13.2563 31.1044ZM14.9736 23.5474C15.2306 23.635 15.3844 23.6877 15.4984 23.7318C15.607 23.7737 15.6209 23.7862 15.6043 23.7759L17.0816 21.3292C16.722 21.1025 16.2791 20.9618 15.863 20.82L14.9736 23.5474ZM18.2191 25.9233C18.3765 25.5049 18.5519 25.066 18.6091 24.638L15.8225 24.2485C15.8252 24.2288 15.8258 24.2475 15.7885 24.3599C15.7493 24.4779 15.6913 24.6328 15.594 24.8914L18.2191 25.9233ZM15.6043 23.7759C15.7621 23.8753 15.8477 24.0607 15.8225 24.2485L18.6091 24.638C18.7849 23.3233 18.1862 22.0263 17.0816 21.3292L15.6043 23.7759ZM7.96875 18.0076C7.96875 19.8906 9.14743 21.5623 10.8949 22.1576L11.7843 19.4302C11.1853 19.2261 10.7813 18.653 10.7813 18.0076H7.96875ZM10.7813 18.0076C10.7813 17.0529 11.6424 16.3413 12.5556 16.5413L13.1449 13.7301C10.4809 13.1466 7.96875 15.2225 7.96875 18.0076H10.7813ZM24.2336 34.7482C24.9759 36.0759 26.3571 36.8952 27.8529 36.8952V34.0202C27.3664 34.0202 26.9171 33.7538 26.6756 33.3218L24.2336 34.7482ZM37.0313 18.0076C37.0313 15.2225 34.5191 13.1466 31.8551 13.7301L32.4444 16.5413C33.3576 16.3413 34.2188 17.0529 34.2188 18.0076H37.0313Z" fill="#34AFF4"/>
<path d="M36.4757 27.7917C39.4447 29.3175 41.25 31.3327 41.25 33.5417C41.25 38.3051 32.8552 42.1667 22.5 42.1667C12.1447 42.1667 3.75 38.3051 3.75 33.5417C3.75 31.3327 5.55534 29.3175 8.52433 27.7917" stroke="#34AFF4" stroke-width="1.5" stroke-linecap="round"/>
</svg>
