<svg width="15" height="15" viewBox="0 0 15 15" fill="none" xmlns="http://www.w3.org/2000/svg">
<path d="M10.3935 8.68182L10.6782 8.39876L10.0171 7.73395L9.73247 8.01701L10.3935 8.68182ZM11.6342 8.2802L12.8282 8.92932L13.276 8.1057L12.0819 7.45657L11.6342 8.2802ZM13.0581 10.2194L12.1702 11.1023L12.8312 11.7671L13.7191 10.8843L13.0581 10.2194ZM11.6292 11.3865C10.723 11.4709 8.37853 11.3957 5.84014 8.8717L5.17912 9.53651C7.94916 12.2908 10.5856 12.4253 11.7162 12.3199L11.6292 11.3865ZM5.84014 8.8717C3.42053 6.46582 3.01972 4.44229 2.96983 3.56442L2.03384 3.61761C2.09663 4.7225 2.59292 6.96501 5.17912 9.53651L5.84014 8.8717ZM6.69972 5.00902L6.87897 4.83077L6.21797 4.16598L6.03871 4.34422L6.69972 5.00902ZM7.02166 2.55877L6.23356 1.50602L5.48307 2.06785L6.27116 3.12061L7.02166 2.55877ZM3.58292 1.27688L2.60192 2.25231L3.26295 2.91711L4.24395 1.94168L3.58292 1.27688ZM6.36922 4.67662C6.03871 4.34422 6.03826 4.34466 6.03781 4.34511C6.03766 4.34526 6.03721 4.34572 6.03691 4.34602C6.03629 4.34664 6.03567 4.34727 6.03504 4.34791C6.03377 4.3492 6.03246 4.35055 6.03111 4.35195C6.0284 4.35475 6.02554 4.35779 6.02252 4.36107C6.01649 4.36761 6.00987 4.3751 6.00279 4.38355C5.98862 4.40046 5.97256 4.42128 5.95569 4.44618C5.92186 4.49612 5.88499 4.56213 5.85371 4.64516C5.78988 4.81457 5.75566 5.03788 5.79856 5.31442C5.88246 5.85522 6.25491 6.56957 7.20897 7.5182L7.86997 6.85338C6.97716 5.96563 6.76447 5.42538 6.72497 5.17069C6.70616 5.04948 6.72566 4.98983 6.73103 4.9757C6.73428 4.96697 6.73584 4.96607 6.73184 4.97204C6.72984 4.97496 6.72653 4.97953 6.72134 4.98568C6.71878 4.98877 6.71572 4.99225 6.71216 4.99614C6.71034 4.99808 6.70847 5.00013 6.70634 5.00227C6.70534 5.00335 6.70428 5.00444 6.70316 5.00557C6.70259 5.00613 6.70203 5.0067 6.70147 5.00727C6.70122 5.00756 6.70078 5.008 6.70059 5.00814C6.70016 5.00858 6.69972 5.00902 6.36922 4.67662ZM7.20897 7.5182C8.16334 8.46713 8.88103 8.83645 9.42272 8.91957C9.69953 8.96201 9.92272 8.92813 10.092 8.86507C10.175 8.83413 10.2412 8.7977 10.2912 8.7642C10.3162 8.74745 10.337 8.73151 10.354 8.71745C10.3625 8.71045 10.37 8.70388 10.3765 8.69788C10.3798 8.69488 10.3829 8.69207 10.3857 8.68938C10.3872 8.68801 10.3885 8.6867 10.3898 8.68545C10.3904 8.68482 10.391 8.6842 10.3917 8.68357C10.392 8.68326 10.3925 8.68282 10.3926 8.6827C10.393 8.68226 10.3935 8.68182 10.063 8.34938C9.73247 8.01701 9.73291 8.01657 9.73334 8.01613C9.73347 8.01601 9.73391 8.01557 9.73422 8.01526C9.73478 8.0147 9.73534 8.01413 9.73591 8.01357C9.73709 8.01251 9.73816 8.01145 9.73922 8.01038C9.74141 8.00832 9.74347 8.00645 9.74541 8.00463C9.74928 8.00113 9.75278 7.99807 9.75591 7.99557C9.76203 7.99045 9.76659 7.9872 9.76941 7.98526C9.77522 7.98138 9.77403 7.98313 9.76478 7.98657C9.74947 7.99226 9.68816 8.01182 9.56491 7.99288C9.30659 7.95332 8.76253 7.74082 7.86997 6.85338L7.20897 7.5182ZM6.23356 1.50602C5.59649 0.655022 4.34376 0.520365 3.58292 1.27688L4.24395 1.94168C4.57625 1.61126 5.16642 1.64489 5.48307 2.06785L6.23356 1.50602ZM2.96983 3.56442C2.95754 3.3481 3.05675 3.12213 3.26295 2.91711L2.60192 2.25231C2.2661 2.58623 2.00209 3.05892 2.03384 3.61761L2.96983 3.56442ZM12.1702 11.1023C11.9985 11.2731 11.8143 11.3693 11.6292 11.3865L11.7162 12.3199C12.1753 12.2771 12.5515 12.0452 12.8312 11.7671L12.1702 11.1023ZM6.87897 4.83077C7.49428 4.21895 7.54003 3.2512 7.02166 2.55877L6.27116 3.12061C6.52334 3.45747 6.48584 3.89962 6.21797 4.16598L6.87897 4.83077ZM12.8282 8.92932C13.3393 9.2072 13.419 9.86057 13.0581 10.2194L13.7191 10.8843C14.5568 10.0513 14.2985 8.66151 13.276 8.1057L12.8282 8.92932ZM10.6782 8.39876C10.9182 8.16013 11.3045 8.10101 11.6342 8.2802L12.0819 7.45657C11.4047 7.08838 10.5642 7.19007 10.0171 7.73395L10.6782 8.39876Z" fill="white"/>
</svg>
